<svg width="40" height="40" viewBox="0 0 40 40" fill="none" xmlns="http://www.w3.org/2000/svg">
<rect width="40" height="40" rx="15" fill="white"/>
<path d="M18.0918 14.8496C18.1958 14.8487 18.2991 14.8685 18.3955 14.9072C18.4919 14.946 18.5794 15.0036 18.6533 15.0762C18.7273 15.1488 18.7864 15.2356 18.8262 15.3311C18.8658 15.4264 18.8857 15.5287 18.8848 15.6318C18.8838 15.7351 18.8617 15.8369 18.8203 15.9316C18.7792 16.0257 18.719 16.1096 18.6445 16.1807L18.6455 16.1816L15.5391 19.2324H26.3633C26.571 19.2324 26.7713 19.314 26.9189 19.459C27.0666 19.6041 27.1504 19.8015 27.1504 20.0078C27.1504 20.2141 27.0666 20.4116 26.9189 20.5566C26.7713 20.7017 26.571 20.7822 26.3633 20.7822H15.5391L18.6455 23.834L18.6475 23.8359C18.791 23.9819 18.8709 24.1778 18.8691 24.3818C18.8673 24.5859 18.7838 24.7804 18.6377 24.9238C18.4917 25.0671 18.2951 25.1486 18.0898 25.1504C17.8847 25.1521 17.6865 25.0742 17.5381 24.9336L17.5361 24.9316L13.0811 20.5566C12.9334 20.4116 12.8496 20.2141 12.8496 20.0078C12.8496 19.8015 12.9334 19.6041 13.0811 19.459L17.5361 15.084C17.6084 15.011 17.6941 14.9522 17.7891 14.9121C17.8848 14.8717 17.9878 14.8505 18.0918 14.8496Z" fill="black" stroke="black" stroke-width="0.3"/>
</svg>
