<svg width="187" height="30" viewBox="0 0 187 30" fill="none" xmlns="http://www.w3.org/2000/svg">
<path d="M15.0142 8.51841H13.1072V21.4811H21.7081V19.7775H15.0142V8.51841ZM0 21.4816V30H13.0882V28.1109H1.90698V21.4816H0ZM0 0V8.51841H1.90698V1.8887H13.0882V0H0Z" fill="white"/>
<path d="M21.9125 29.9995V28.1109H33.0937V21.4816H35.0008V29.9995H21.9125Z" fill="white"/>
<path d="M21.9125 1.8887V0H35.0008V8.51841H33.0937V1.8887H21.9125Z" fill="white"/>
<path d="M119.01 8.54366H117.071L118.572 22.178H121.45L122.701 12.8591L123.826 22.0529H126.891L128.142 8.54366H125.953L125.14 20.1766L123.826 10.9203H121.45L120.199 20.1766L119.01 8.54366Z" fill="white"/>
<path fill-rule="evenodd" clip-rule="evenodd" d="M135.773 8.48112L139.651 22.0529H137.587L136.774 18.6756H132.145L131.207 22.0529H129.143L132.958 8.48112H135.773ZM132.333 17.112H136.399L134.397 10.4199L132.333 17.112Z" fill="white"/>
<path d="M141.965 8.48112H143.842V22.1154H141.965V8.48112Z" fill="white"/>
<path d="M153.724 8.48112H155.601V22.1154H153.724V8.48112Z" fill="white"/>
<path d="M165.108 8.48112H166.985V22.1154H165.108V8.48112Z" fill="white"/>
<path d="M180.37 8.48112H182.246V22.1154H180.37V8.48112Z" fill="white"/>
<path d="M150.847 20.2391V22.1154H141.965V20.2391H150.847Z" fill="white"/>
<path d="M162.606 20.2391V22.1154H153.724V20.2391H162.606Z" fill="white"/>
<path d="M173.99 20.2391V22.1154H165.108V20.2391H173.99Z" fill="white"/>
<path d="M173.49 14.235V16.1113H165.108V14.235H173.49Z" fill="white"/>
<path d="M173.99 8.48112V10.3574H165.108V8.48112H173.99Z" fill="white"/>
<path d="M187 8.48112V10.1072L175.616 10.1072V8.48112L187 8.48112Z" fill="white"/>
<path d="M102.92 14.9422V10.3492H106.02C107.531 10.3492 108.073 10.8529 108.073 12.2291V13.0429C108.073 14.4576 107.55 14.9422 106.02 14.9422H102.92ZM107.84 15.756C109.254 15.3878 110.242 14.0697 110.242 12.5003C110.242 11.5119 109.854 10.6203 109.118 9.90307C108.189 9.01139 106.949 8.56579 105.341 8.56579H100.983V22.1318H102.92V16.7251H105.826C107.317 16.7251 107.918 17.3451 107.918 18.8958V22.1324H109.893V19.2059C109.893 17.074 109.39 16.2602 107.84 16.0275V15.756ZM91.531 16.2016H97.497V14.4187H91.531V10.3487H98.0779V8.56579H89.5549V22.1318H98.3685V20.3489H91.531V16.2016ZM85.0416 16.9188V17.849C85.0416 19.8063 84.3248 20.4461 82.5236 20.4461H82.0975C80.2959 20.4461 79.4244 19.8645 79.4244 17.1707V13.527C79.4244 10.814 80.3348 10.2516 82.1359 10.2516H82.5232C84.2859 10.2516 84.8476 10.9106 84.8668 12.7324H86.9976C86.804 10.0579 85.022 8.37207 82.3487 8.37207C81.0511 8.37207 79.9663 8.77921 79.1529 9.55409C77.9326 10.6977 77.2547 12.6358 77.2547 15.3489C77.2547 17.9652 77.836 19.9034 79.0366 21.1047C79.85 21.8992 80.9738 22.3256 82.0778 22.3256C83.24 22.3256 84.3056 21.8603 84.8475 20.8528H85.1186V22.1318H86.9005V15.1359H81.6512V16.9188H85.0416ZM67.9577 10.3487H70.0692C72.0645 10.3487 73.1493 10.8525 73.1493 13.566V17.1318C73.1493 19.8447 72.0645 20.3489 70.0692 20.3489H67.9577V10.3487ZM70.2431 22.1324C73.943 22.1324 75.3181 19.3222 75.3181 15.3493C75.3181 11.3182 73.846 8.56626 70.2042 8.56626H66.0201V22.1324H70.2431ZM56.6649 16.2016H62.6311V14.4187H56.6649V10.3487H63.2119V8.56579H54.6888V22.1318H63.5026V20.3489H56.6649V16.2016ZM45.2367 8.56579H43.2611V22.1318H52.1713V20.3489H45.2367V8.56579Z" fill="white"/>
</svg>
