<svg width="187" height="30" viewBox="0 0 187 30" fill="none" xmlns="http://www.w3.org/2000/svg">
<path d="M15.0124 8.51841H13.1056V21.4811H21.7054V19.7775H15.0124V8.51841ZM0 21.4816V30H13.0866V28.1109H1.90675V21.4816H0ZM0 0V8.51841H1.90675V1.8887H13.0866V0H0Z" fill="white"/>
<path d="M21.9097 29.9995V28.1109H33.0896V21.4816H34.9964V29.9995H21.9097Z" fill="white"/>
<path d="M21.9097 1.8887V0H34.9964V8.51841H33.0896V1.8887H21.9097Z" fill="white"/>
<path d="M118.996 8.54366H117.057L118.558 22.178H121.435L122.685 12.8591L123.811 22.0529H126.876L128.126 8.54366H125.937L125.124 20.1766L123.811 10.9203H121.435L120.184 20.1766L118.996 8.54366Z" fill="white"/>
<path fill-rule="evenodd" clip-rule="evenodd" d="M135.756 8.48112L139.634 22.0529H137.57L136.757 18.6756H132.129L131.191 22.0529H129.127L132.942 8.48112H135.756ZM132.317 17.112H136.382L134.38 10.4199L132.317 17.112Z" fill="white"/>
<path d="M141.948 8.48112H143.824V22.1154H141.948V8.48112Z" fill="white"/>
<path d="M153.705 8.48112H155.582V22.1154H153.705V8.48112Z" fill="white"/>
<path d="M165.088 8.48112H166.964V22.1154H165.088V8.48112Z" fill="white"/>
<path d="M180.348 8.48112H182.224V22.1154H180.348V8.48112Z" fill="white"/>
<path d="M150.829 20.2391V22.1154H141.948V20.2391H150.829Z" fill="white"/>
<path d="M162.586 20.2391V22.1154H153.705V20.2391H162.586Z" fill="white"/>
<path d="M173.968 20.2391V22.1154H165.088V20.2391H173.968Z" fill="white"/>
<path d="M173.468 14.235V16.1113H165.088V14.235H173.468Z" fill="white"/>
<path d="M173.968 8.48112V10.3574H165.088V8.48112H173.968Z" fill="white"/>
<path d="M186.977 8.48112V10.1072L175.594 10.1072V8.48112L186.977 8.48112Z" fill="white"/>
<path d="M102.908 14.9422V10.3492H106.007C107.517 10.3492 108.06 10.8529 108.06 12.2291V13.0429C108.06 14.4576 107.537 14.9422 106.007 14.9422H102.908ZM107.827 15.756C109.24 15.3878 110.228 14.0697 110.228 12.5003C110.228 11.5119 109.841 10.6203 109.105 9.90307C108.175 9.01139 106.936 8.56579 105.328 8.56579H100.971V22.1318H102.908V16.7251H105.813C107.304 16.7251 107.904 17.3451 107.904 18.8958V22.1324H109.88V19.2059C109.88 17.074 109.376 16.2602 107.827 16.0275V15.756ZM91.5197 16.2016H97.485V14.4187H91.5197V10.3487H98.0658V8.56579H89.5439V22.1318H98.3564V20.3489H91.5197V16.2016ZM85.0312 16.9188V17.849C85.0312 19.8063 84.3144 20.4461 82.5135 20.4461H82.0874C80.286 20.4461 79.4146 19.8645 79.4146 17.1707V13.527C79.4146 10.814 80.3249 10.2516 82.1259 10.2516H82.5131C84.2756 10.2516 84.8372 10.9106 84.8564 12.7324H86.9869C86.7933 10.0579 85.0115 8.37207 82.3386 8.37207C81.0412 8.37207 79.9565 8.77921 79.1432 9.55409C77.923 10.6977 77.2452 12.6358 77.2452 15.3489C77.2452 17.9652 77.8265 19.9034 79.0269 21.1047C79.8402 21.8992 80.9639 22.3256 82.0677 22.3256C83.2297 22.3256 84.2953 21.8603 84.8371 20.8528H85.1081V22.1318H86.8898V15.1359H81.6411V16.9188H85.0312ZM67.9494 10.3487H70.0606C72.0557 10.3487 73.1404 10.8525 73.1404 13.566V17.1318C73.1404 19.8447 72.0557 20.3489 70.0606 20.3489H67.9494V10.3487ZM70.2345 22.1324C73.9339 22.1324 75.3088 19.3222 75.3088 15.3493C75.3088 11.3182 73.8369 8.56626 70.1956 8.56626H66.012V22.1324H70.2345ZM56.658 16.2016H62.6234V14.4187H56.658V10.3487H63.2042V8.56579H54.6822V22.1318H63.4948V20.3489H56.658V16.2016ZM45.2312 8.56579H43.2559V22.1318H52.165V20.3489H45.2312V8.56579Z" fill="white"/>
</svg>
