<svg width="158" height="30" viewBox="0 0 158 30" fill="none" xmlns="http://www.w3.org/2000/svg">
<path d="M20.786 17.4769V16.5467H17.3959V14.7638H22.6445V21.7598H20.8629V20.4807H20.5918C20.05 21.4882 18.9845 21.9535 17.8225 21.9535C16.7186 21.9535 15.5949 21.5271 14.7817 20.7326C13.5812 19.5314 13 17.5932 13 14.9768C13 12.2637 13.6778 10.3256 14.898 9.18202C15.7112 8.40714 16.7959 8 18.0934 8C20.7663 8 22.548 9.6858 22.7416 12.3603H20.6111C20.5919 10.5385 20.0303 9.87948 18.2678 9.87948H17.8806C16.0797 9.87948 15.1694 10.4419 15.1694 13.155V16.7986C15.1694 19.4924 16.0408 20.074 17.8422 20.074H18.2682C20.0692 20.074 20.786 19.4342 20.786 17.4769Z" fill="white"/>
<path d="M0 21.4816V30H13.0866V28.1109H1.90675V21.4816H0ZM0 0V8.51841H1.90675V1.8887H13.0866V0H0Z" fill="white"/>
<path d="M21.9097 29.9995V28.1109H33.0896V21.4816H34.9964V29.9995H21.9097Z" fill="white"/>
<path d="M21.9097 1.8887V0H34.9964V8.51841H33.0896V1.8887H21.9097Z" fill="white"/>
<path d="M91.2638 15.8295H97.2291V14.0466H91.2638V9.97661H97.8099V8.19373H89.288V21.7598H98.1005V19.9769H91.2638V15.8295ZM56.4021 15.8295H62.3675V14.0466H56.4021V9.97661H62.9483V8.19373H54.4263V21.7598H63.2389V19.9769H56.4021V15.8295Z" fill="white"/>
<path d="M109.997 14.983C109.997 18.9559 108.622 21.7661 104.922 21.7661H100.7V8.19995H104.884C108.525 8.19995 109.997 10.9519 109.997 14.983Z" fill="white"/>
<path d="M78.3 8H80.1763V21.6343H78.3V8Z" fill="white"/>
<path d="M87.1808 19.758V21.6343H78.3V19.758H87.1808Z" fill="white"/>
<path d="M49.786 17.4769V16.5467H46.3959V14.7638H51.6445V21.7598H49.8629V20.4807H49.5918C49.05 21.4882 47.9845 21.9535 46.8225 21.9535C45.7186 21.9535 44.5949 21.5271 43.7817 20.7326C42.5812 19.5314 42 17.5932 42 14.9768C42 12.2637 42.6778 10.3256 43.898 9.18202C44.7112 8.40714 45.7959 8 47.0934 8C49.7663 8 51.548 9.6858 51.7416 12.3603H49.6111C49.5919 10.5385 49.0303 9.87948 47.2678 9.87948H46.8806C45.0797 9.87948 44.1694 10.4419 44.1694 13.155V16.7986C44.1694 19.4924 45.0408 20.074 46.8422 20.074H47.2682C49.0692 20.074 49.786 19.4342 49.786 17.4769Z" fill="white"/>
<path d="M76 12.1441C76 13.7174 74.9332 15.0388 73.406 15.4078V15.6801C75.08 15.9133 75.6238 16.7291 75.6238 18.8663V21.8H73.49V18.5554C73.49 17.0009 72.8414 16.3793 71.2306 16.3793H68.0922V21.7994H66V8.19995H70.7071C72.4434 8.19995 73.7827 8.64666 74.7868 9.54053C75.5817 10.2595 76 11.1533 76 12.1441Z" fill="white"/>
<path d="M68.0525 9.95426H71.9413C72.8958 9.95426 73.6696 10.6724 73.6696 11.5582V13.0118C73.6696 13.8976 72.8958 14.6157 71.9413 14.6157H68.0525V9.95426Z" fill="black"/>
<path d="M102.7 10H105.7C106.805 10 107.7 10.8954 107.7 12V18C107.7 19.1046 106.805 20 105.7 20H102.7V10Z" fill="#0C0C0C"/>
<path d="M117 8H118.876V21.6343H117V8Z" fill="white"/>
<path d="M125.881 19.758V21.6343H117V19.758H125.881Z" fill="white"/>
<path d="M131 8V21.5H129V8H131Z" fill="white"/>
<path d="M135.728 8.2L139.77 19.3117H139.93L143.972 8.2H145.7L140.701 21.4H138.999L134 8.2H135.728Z" fill="white"/>
<path d="M148.7 8H150.576V21.6343H148.7V8Z" fill="white"/>
<path d="M157.581 19.758V21.6343H148.7V19.758H157.581Z" fill="white"/>
<path d="M157.08 13.7539V15.6302H148.7V13.7539H157.08Z" fill="white"/>
<path d="M157.581 8V9.87628H148.7V8H157.581Z" fill="white"/>
</svg>
